<mxfile host="app.diagrams.net" agent="Mozilla/5.0 (Macintosh; Intel Mac OS X 10_15_7) AppleWebKit/605.1.15 (KHTML, like Gecko) Version/17.6 Safari/605.1.15" version="24.8.0">
  <diagram name="페이지-1" id="yPHQTugA6txot8i9Huel">
    <mxGraphModel dx="954" dy="537" grid="1" gridSize="10" guides="1" tooltips="1" connect="1" arrows="1" fold="1" page="1" pageScale="1" pageWidth="827" pageHeight="1169" math="0" shadow="0">
      <root>
        <mxCell id="0" />
        <mxCell id="1" parent="0" />
        <mxCell id="FJeTf0XlQFN-5UlTr12a-1" value="" style="whiteSpace=wrap;html=1;aspect=fixed;" vertex="1" parent="1">
          <mxGeometry x="94" y="50" width="640" height="640" as="geometry" />
        </mxCell>
        <mxCell id="FJeTf0XlQFN-5UlTr12a-2" value="&lt;font style=&quot;font-size: 24px;&quot;&gt;To-Do App&lt;/font&gt;" style="rounded=0;whiteSpace=wrap;html=1;strokeColor=none;" vertex="1" parent="1">
          <mxGeometry x="130" y="70" width="130" height="60" as="geometry" />
        </mxCell>
        <mxCell id="FJeTf0XlQFN-5UlTr12a-3" value="To-Do List에 입력할 항목을 입력해주세요" style="rounded=0;whiteSpace=wrap;html=1;align=left;spacingLeft=10;fontColor=#808080;" vertex="1" parent="1">
          <mxGeometry x="140" y="150" width="470" height="30" as="geometry" />
        </mxCell>
        <mxCell id="FJeTf0XlQFN-5UlTr12a-4" value="추가" style="rounded=1;whiteSpace=wrap;html=1;" vertex="1" parent="1">
          <mxGeometry x="620" y="150" width="60" height="30" as="geometry" />
        </mxCell>
        <mxCell id="FJeTf0XlQFN-5UlTr12a-6" value="" style="rounded=0;whiteSpace=wrap;html=1;" vertex="1" parent="1">
          <mxGeometry x="140" y="200" width="540" height="440" as="geometry" />
        </mxCell>
        <mxCell id="FJeTf0XlQFN-5UlTr12a-10" value="" style="endArrow=none;dashed=1;html=1;dashPattern=1 3;strokeWidth=2;rounded=0;entryX=0.944;entryY=0.136;entryDx=0;entryDy=0;entryPerimeter=0;exitX=0.833;exitY=0.136;exitDx=0;exitDy=0;exitPerimeter=0;" edge="1" parent="1" target="FJeTf0XlQFN-5UlTr12a-6">
          <mxGeometry width="50" height="50" relative="1" as="geometry">
            <mxPoint x="170.00000000000003" y="260.15999999999997" as="sourcePoint" />
            <mxPoint x="569.5999999999999" y="259.84000000000003" as="targetPoint" />
          </mxGeometry>
        </mxCell>
        <mxCell id="FJeTf0XlQFN-5UlTr12a-12" value="" style="endArrow=none;dashed=1;html=1;dashPattern=1 3;strokeWidth=2;rounded=0;entryX=0.944;entryY=0.136;entryDx=0;entryDy=0;entryPerimeter=0;exitX=0.833;exitY=0.136;exitDx=0;exitDy=0;exitPerimeter=0;" edge="1" parent="1">
          <mxGeometry width="50" height="50" relative="1" as="geometry">
            <mxPoint x="170.00000000000003" y="310.15999999999997" as="sourcePoint" />
            <mxPoint x="650" y="310" as="targetPoint" />
          </mxGeometry>
        </mxCell>
        <mxCell id="FJeTf0XlQFN-5UlTr12a-13" value="" style="endArrow=none;dashed=1;html=1;dashPattern=1 3;strokeWidth=2;rounded=0;entryX=0.944;entryY=0.136;entryDx=0;entryDy=0;entryPerimeter=0;exitX=0.833;exitY=0.136;exitDx=0;exitDy=0;exitPerimeter=0;" edge="1" parent="1">
          <mxGeometry width="50" height="50" relative="1" as="geometry">
            <mxPoint x="170.00000000000003" y="360.15999999999997" as="sourcePoint" />
            <mxPoint x="650" y="360" as="targetPoint" />
          </mxGeometry>
        </mxCell>
        <mxCell id="FJeTf0XlQFN-5UlTr12a-14" value="완료" style="rounded=1;whiteSpace=wrap;html=1;" vertex="1" parent="1">
          <mxGeometry x="580" y="230" width="40" height="20" as="geometry" />
        </mxCell>
        <mxCell id="FJeTf0XlQFN-5UlTr12a-16" value="X" style="ellipse;whiteSpace=wrap;html=1;aspect=fixed;" vertex="1" parent="1">
          <mxGeometry x="630" y="232.5" width="15" height="15" as="geometry" />
        </mxCell>
        <mxCell id="FJeTf0XlQFN-5UlTr12a-18" value="진행중" style="rounded=1;whiteSpace=wrap;html=1;" vertex="1" parent="1">
          <mxGeometry x="580" y="274" width="40" height="20" as="geometry" />
        </mxCell>
        <mxCell id="FJeTf0XlQFN-5UlTr12a-19" value="X" style="ellipse;whiteSpace=wrap;html=1;aspect=fixed;" vertex="1" parent="1">
          <mxGeometry x="630" y="276.5" width="15" height="15" as="geometry" />
        </mxCell>
      </root>
    </mxGraphModel>
  </diagram>
</mxfile>
